THE RITE 1080P (2011) NL SUBS   

[img]http://img718.imageshack.us/img718/6684/postermp.jpg[/img]

Verenigde Staten
Drama / Horror
114 minuten



geregisseerd door Mikael Håfström
met Anthony Hopkins, Colin O'Donoghue en Alice Braga

'The Rite' volgt de sceptische seminariestudent Michael Kovak (Colin O’Donoghue), 
die de VS verlaat om een studie te gaan volgen op een uitdrijvingsschool aan het 
Vaticaan. Tijdens zijn studie in Rome, ontmoet hij een onorthodoxe priester; 
Vader Lucas (Anthony Hopkins). Deze leidt hem al snel naar ''de donkere zijde'' 
van zijn geloof...


English
An American seminary student travels to Italy to take an exorcism course. 






bron: BluRay
Beeld: 1080 (1920*816)
Container: x264 (MKV)
Group: a.b.boneless & a.b.x264

IMDb: http://www.imdb.com/title/tt1161864/

Ondertitels: NEDERLANDS
Audio: ENGLISH DD5.1 & DTS ---- ac3 toegevoegd

Subtitles.NL.......: Vertaald door Tokke Mooie M8!!!
Bewerking+Resync...: Tokke & Suurtje, Klasse werk thnx!!
 
  Category : Video 
  Format : x264HD 
  Source : Retail 
  Subtitle : English subs Dutch subs optional  
  Genre : Drama Horror  
  Language : English audio  
 
 
http://www.moviemeter.nl/film/70998 
http://www.imdb.com/title/tt1161864

TBS

MEDIA INFO

General
Complete name                    : The.Rite.2011.NLSUBS.1080p.x264.MULTI-SRT deze\The.Rite.2011.NLSUBS.1080p.x264.MULTI-SRT\The.Rite.2011.NLSUBS.1080p.x264.MULTI-SRT.mkv
Format                           : Matroska
File size                        : 8.16 GiB
Duration                         : 1h 53mn
Overall bit rate                 : 10.3 Mbps
Encoded date                     : UTC 2011-04-26 12:25:07
Writing application              : mkvmerge v2.3.0 ('Freak U') built on Sep  8 2008 18:32:16
Writing library                  : libebml v0.7.7 + libmatroska v0.8.1

Video
ID                               : 1
Format                           : AVC
Format/Info                      : Advanced Video Codec
Format profile                   : High@L4.1
Format settings, CABAC           : Yes
Format settings, ReFrames        : 5 frames
Format settings, GOP             : M=1, N=32
Muxing mode                      : Container profile=Unknown@4.1
Codec ID                         : V_MPEG4/ISO/AVC
Duration                         : 1h 53mn
Bit rate                         : 8 125 Kbps
Width                            : 1 920 pixels
Height                           : 800 pixels
Display aspect ratio             : 2.40:1
Frame rate                       : 23.976 fps
Color space                      : YUV
Chroma subsampling               : 4:2:0
Bit depth                        : 8 bits
Scan type                        : Progressive
Bits/(Pixel*Frame)               : 0.221
Stream size                      : 6.29 GiB (77%)
Writing library                  : x264 core 115 r1937 aa21558
Encoding settings                : cabac=1 / ref=5 / deblock=1:0:0 / analyse=0x3:0x113 / me=umh / subme=8 / psy=1 / psy_rd=1.00:0.00 / mixed_ref=1 / me_range=16 / chroma_me=1 / trellis=1 / 8x8dct=1 / cqm=0 / deadzone=21,11 / fast_pskip=1 / chroma_qp_offset=-2 / threads=12 / sliced_threads=0 / nr=0 / decimate=1 / interlaced=0 / bluray_compat=0 / constrained_intra=0 / bframes=3 / b_pyramid=2 / b_adapt=2 / b_bias=0 / direct=3 / weightb=1 / open_gop=0 / weightp=2 / keyint=240 / keyint_min=24 / scenecut=40 / intra_refresh=0 / rc_lookahead=50 / rc=2pass / mbtree=1 / bitrate=8125 / ratetol=1.0 / qcomp=0.60 / qpmin=0 / qpmax=69 / qpstep=4 / cplxblur=20.0 / qblur=0.5 / ip_ratio=1.40 / aq=1:1.00
Language                         : English

Audio #1
ID                               : 2
Format                           : AC-3
Format/Info                      : Audio Coding 3
Mode extension                   : CM (complete main)
Codec ID                         : A_AC3
Duration                         : 1h 53mn
Bit rate mode                    : Constant
Bit rate                         : 640 Kbps
Channel(s)                       : 6 channels
Channel positions                : Front: L C R, Side: L R, LFE
Sampling rate                    : 48.0 KHz
Bit depth                        : 16 bits
Stream size                      : 521 MiB (6%)
Title                            : AC3
Language                         : English

Audio #2
ID                               : 3
Format                           : DTS
Format/Info                      : Digital Theater Systems
Codec ID                         : A_DTS
Duration                         : 1h 53mn
Bit rate mode                    : Constant
Bit rate                         : 1 510 Kbps
Channel(s)                       : 6 channels
Channel positions                : Front: L C R, Side: L R, LFE
Sampling rate                    : 48.0 KHz
Bit depth                        : 24 bits
Video delay                      : 11ms
Stream size                      : 1.20 GiB (15%)
Title                            : DTS
Language                         : English

Text #1
ID                               : 4
Format                           : UTF-8
Codec ID                         : S_TEXT/UTF8
Codec ID/Info                    : UTF-8 Plain Text
Title                            : Engels
Language                         : English

Text #2
ID                               : 5
Format                           : UTF-8
Codec ID                         : S_TEXT/UTF8
Codec ID/Info                    : UTF-8 Plain Text
Title                            : Engels 2
Language                         : English

Text #3
ID                               : 6
Format                           : UTF-8
Codec ID                         : S_TEXT/UTF8
Codec ID/Info                    : UTF-8 Plain Text
Title                            : Nederlands
Language                         : Dutch

Menu
00:00:00.000                     : en:00:00:00.000
00:10:14.197                     : en:00:10:14.197
00:18:23.686                     : en:00:18:23.686
00:29:16.546                     : en:00:29:16.546
00:40:35.433                     : en:00:40:35.433
00:50:16.013                     : en:00:50:16.013
01:01:11.376                     : en:01:01:11.376
01:11:14.270                     : en:01:11:14.270
01:20:51.555                     : en:01:20:51.555
01:27:14.896                     : en:01:27:14.896
01:37:09.741                     : en:01:37:09.741
01:49:43.202                     : en:01:49:43.202


 

